<svg width="50" height="50" viewBox="0 0 50 50" fill="none" xmlns="http://www.w3.org/2000/svg">
<path d="M25 50C38.8071 50 50 38.8071 50 25C50 11.1929 38.8071 0 25 0C11.1929 0 0 11.1929 0 25C0 38.8071 11.1929 50 25 50Z" fill="#F0F0F0"/>
<path d="M33.6956 24.9999C33.6956 27.1739 29.8024 32.6086 25 32.6086C20.1975 32.6086 16.3044 27.1739 16.3044 24.9999C16.3044 20.1974 20.1975 16.3043 25 16.3043C29.8024 16.3043 33.6956 20.1974 33.6956 24.9999Z" fill="#D80027"/>
<path d="M33.6956 25C33.6956 29.8025 29.8024 33.6956 25 33.6956C20.1975 33.6956 16.3044 29.8025 16.3044 25" fill="#0052B4"/>
<path d="M36.5286 30.3803L34.2228 32.686L35.76 34.2232L38.0658 31.9175L36.5286 30.3803Z" fill="black"/>
<path d="M32.6851 34.2234L30.3793 36.5292L31.9165 38.0664L34.2223 35.7606L32.6851 34.2234Z" fill="black"/>
<path d="M41.1407 34.9908L38.835 37.2965L40.3721 38.8337L42.6779 36.528L41.1407 34.9908Z" fill="black"/>
<path d="M37.2973 38.8348L34.9916 41.1405L36.5288 42.6777L38.8345 40.3719L37.2973 38.8348Z" fill="black"/>
<path d="M38.8346 32.6857L36.5288 34.9915L38.066 36.5286L40.3717 34.2229L38.8346 32.6857Z" fill="black"/>
<path d="M34.9921 36.529L32.6864 38.8347L34.2236 40.3719L36.5293 38.0662L34.9921 36.529Z" fill="black"/>
<path d="M32.687 11.1647L38.8357 17.3134L40.3729 15.7762L34.2242 9.62751L32.687 11.1647Z" fill="black"/>
<path d="M30.3811 13.4715L32.6868 15.7772L34.2239 14.2401L31.9182 11.9344L30.3811 13.4715Z" fill="black"/>
<path d="M34.2236 17.314L36.5293 19.6198L38.0664 18.0826L35.7607 15.7769L34.2236 17.314Z" fill="black"/>
<path d="M34.9907 8.85979L37.2964 11.1655L38.8336 9.62834L36.5278 7.32261L34.9907 8.85979Z" fill="black"/>
<path d="M38.8351 12.7028L41.1409 15.0085L42.678 13.4714L40.3723 11.1656L38.8351 12.7028Z" fill="black"/>
<path d="M15.0083 41.1406L8.85962 34.9919L7.32243 36.5291L13.4711 42.6778L15.0083 41.1406Z" fill="black"/>
<path d="M17.3136 38.8342L15.0078 36.5284L13.4707 38.0656L15.7764 40.3713L17.3136 38.8342Z" fill="black"/>
<path d="M13.4708 34.9917L11.1651 32.6859L9.62792 34.2231L11.9337 36.5288L13.4708 34.9917Z" fill="black"/>
<path d="M19.6197 36.5287L13.471 30.38L11.9338 31.9172L18.0825 38.0658L19.6197 36.5287Z" fill="black"/>
<path d="M8.85952 15.008L15.0082 8.85938L13.471 7.32219L7.32233 13.4709L8.85952 15.008Z" fill="black"/>
<path d="M11.1645 17.3133L17.3132 11.1647L15.776 9.62749L9.62732 15.7762L11.1645 17.3133Z" fill="black"/>
<path d="M13.4716 19.62L19.6203 13.4713L18.0832 11.9342L11.9345 18.0829L13.4716 19.62Z" fill="black"/>
</svg>
