<svg width="32" height="32" viewBox="0 0 32 32" fill="none" xmlns="http://www.w3.org/2000/svg">
<g filter="url(#filter0_ii)">
<circle cx="16" cy="16" r="16" fill="#20262B"/>
</g>
<circle cx="16" cy="16" r="15" stroke="#292F33" stroke-width="2"/>
<path d="M11.6337 16.8803C10.9328 16.5027 10.9328 15.4973 11.6337 15.1197L19.7756 10.7323C20.4419 10.3733 21.25 10.8558 21.25 11.6126L21.25 20.3874C21.25 21.1442 20.4419 21.6267 19.7756 21.2677L11.6337 16.8803Z" fill="#F5F5F5"/>
<path d="M11 11.5V21" stroke="#F5F5F5" stroke-width="2" stroke-linecap="round"/>
<path d="M0 0V-2H-2V0H0ZM32 0H34V-2H32V0ZM32 32V34H34V32H32ZM0 32H-2V34H0V32ZM0 2H32V-2H0V2ZM30 0V32H34V0H30ZM32 30H0V34H32V30ZM2 32V0H-2V32H2Z" fill="#292F33"/>
<defs>
<filter id="filter0_ii" x="-2" y="-2" width="35" height="35" filterUnits="userSpaceOnUse" color-interpolation-filters="sRGB">
<feFlood flood-opacity="0" result="BackgroundImageFix"/>
<feBlend mode="normal" in="SourceGraphic" in2="BackgroundImageFix" result="shape"/>
<feColorMatrix in="SourceAlpha" type="matrix" values="0 0 0 0 0 0 0 0 0 0 0 0 0 0 0 0 0 0 127 0" result="hardAlpha"/>
<feOffset dx="1" dy="1"/>
<feGaussianBlur stdDeviation="5"/>
<feComposite in2="hardAlpha" operator="arithmetic" k2="-1" k3="1"/>
<feColorMatrix type="matrix" values="0 0 0 0 0 0 0 0 0 0 0 0 0 0 0 0 0 0 0.5 0"/>
<feBlend mode="normal" in2="shape" result="effect1_innerShadow"/>
<feColorMatrix in="SourceAlpha" type="matrix" values="0 0 0 0 0 0 0 0 0 0 0 0 0 0 0 0 0 0 127 0" result="hardAlpha"/>
<feOffset dx="-2" dy="-2"/>
<feGaussianBlur stdDeviation="5"/>
<feComposite in2="hardAlpha" operator="arithmetic" k2="-1" k3="1"/>
<feColorMatrix type="matrix" values="0 0 0 0 1 0 0 0 0 1 0 0 0 0 1 0 0 0 0.2 0"/>
<feBlend mode="normal" in2="effect1_innerShadow" result="effect2_innerShadow"/>
</filter>
</defs>
</svg>
