<svg width="176" height="46" viewBox="0 0 176 46" fill="none" xmlns="http://www.w3.org/2000/svg">
<g filter="url(#filter0_ii)">
<rect width="176" height="46" rx="23" fill="#22282E"/>
</g>
<rect x="1" y="1" width="174" height="44" rx="22" stroke="#292F33" stroke-width="2"/>
<path d="M36.2325 27.3492L32.6342 23.7934L32.6767 23.7509C35.1417 21.0025 36.8983 17.8434 37.9325 14.5H42.0833V11.6667H32.1667V8.83337H29.3333V11.6667H19.4167V14.4859H35.2408C34.2917 17.22 32.79 19.8125 30.75 22.0792C29.4325 20.62 28.3417 19.0192 27.4775 17.3334H24.6442C25.6783 19.6425 27.095 21.8242 28.8658 23.7934L21.655 30.905L23.6667 32.9167L30.75 25.8334L35.1558 30.2392L36.2325 27.3492ZM44.2083 20.1667H41.375L35 37.1667H37.8333L39.42 32.9167H46.1492L47.75 37.1667H50.5833L44.2083 20.1667ZM40.4967 30.0834L42.7917 23.9492L45.0867 30.0834H40.4967Z" fill="#F5F5F5"/>
<path d="M65.0422 31.468V19.228H60.7222V18.49H70.1542V19.228H65.8342V31.468H65.0422ZM75.8882 22.612C75.7322 22.552 75.5582 22.51 75.3662 22.486C75.1862 22.45 74.9762 22.432 74.7362 22.432C74.2802 22.432 73.8782 22.528 73.5302 22.72C73.1822 22.9 72.8942 23.152 72.6662 23.476C72.4382 23.8 72.2642 24.184 72.1442 24.628C72.0362 25.072 71.9822 25.552 71.9822 26.068V31.468H71.2082V21.874H71.9642V23.728C72.0482 23.476 72.1682 23.23 72.3242 22.99C72.4922 22.738 72.6902 22.516 72.9182 22.324C73.1582 22.132 73.4342 21.976 73.7462 21.856C74.0582 21.736 74.4062 21.676 74.7902 21.676C75.0662 21.676 75.3062 21.694 75.5102 21.73C75.7262 21.766 75.9302 21.82 76.1222 21.892L75.8882 22.612ZM80.3032 31.612C79.8592 31.612 79.4452 31.552 79.0612 31.432C78.6772 31.312 78.3472 31.138 78.0712 30.91C77.7952 30.67 77.5732 30.382 77.4052 30.046C77.2492 29.698 77.1712 29.296 77.1712 28.84V28.57C77.1712 28.21 77.2312 27.874 77.3512 27.562C77.4832 27.238 77.6812 26.962 77.9452 26.734C78.2212 26.494 78.5632 26.308 78.9712 26.176C79.3792 26.032 79.8652 25.96 80.4292 25.96H83.3632V24.79C83.3632 23.998 83.1472 23.398 82.7152 22.99C82.2952 22.582 81.6592 22.378 80.8072 22.378C80.2792 22.378 79.7812 22.468 79.3132 22.648C78.8572 22.816 78.4072 23.05 77.9632 23.35L77.5852 22.756C78.0052 22.456 78.4912 22.204 79.0432 22C79.5952 21.784 80.2012 21.676 80.8612 21.676C81.8692 21.676 82.6672 21.94 83.2552 22.468C83.8432 22.996 84.1372 23.758 84.1372 24.754V31.468H83.3632V30.118H83.3452C83.2492 30.286 83.1172 30.466 82.9492 30.658C82.7812 30.838 82.5772 30.994 82.3372 31.126C82.0732 31.27 81.7792 31.384 81.4552 31.468C81.1312 31.564 80.7472 31.612 80.3032 31.612ZM83.3632 26.626H80.4472C79.9912 26.626 79.6012 26.68 79.2772 26.788C78.9652 26.884 78.7132 27.022 78.5212 27.202C78.3292 27.37 78.1912 27.574 78.1072 27.814C78.0232 28.042 77.9812 28.288 77.9812 28.552V28.84C77.9812 29.236 78.0532 29.566 78.1972 29.83C78.3412 30.094 78.5212 30.31 78.7372 30.478C78.9652 30.634 79.2172 30.748 79.4932 30.82C79.7812 30.892 80.0692 30.928 80.3572 30.928C80.6692 30.928 80.9692 30.904 81.2572 30.856C81.5452 30.796 81.8272 30.694 82.1032 30.55C82.4872 30.358 82.7932 30.094 83.0212 29.758C83.2492 29.422 83.3632 29.062 83.3632 28.678V26.626ZM94.3528 31.468H93.5788V25.096C93.5788 24.256 93.3748 23.596 92.9668 23.116C92.5708 22.624 91.8808 22.378 90.8968 22.378C90.3808 22.378 89.9308 22.474 89.5468 22.666C89.1748 22.846 88.8628 23.074 88.6108 23.35C88.3588 23.614 88.1728 23.896 88.0528 24.196C87.9328 24.484 87.8728 24.736 87.8728 24.952V31.468H87.0988V21.874H87.8548V23.35C87.9388 23.182 88.0648 23.002 88.2328 22.81C88.4128 22.618 88.6288 22.438 88.8808 22.27C89.1448 22.102 89.4508 21.964 89.7988 21.856C90.1588 21.736 90.5668 21.676 91.0228 21.676C91.6228 21.676 92.1328 21.766 92.5528 21.946C92.9848 22.114 93.3328 22.348 93.5968 22.648C93.8608 22.948 94.0528 23.29 94.1728 23.674C94.2928 24.058 94.3528 24.454 94.3528 24.862V31.468ZM100.263 30.928C100.719 30.928 101.121 30.88 101.469 30.784C101.829 30.676 102.129 30.538 102.369 30.37C102.609 30.202 102.789 30.004 102.909 29.776C103.041 29.548 103.107 29.314 103.107 29.074V28.84C103.107 28.516 103.053 28.252 102.945 28.048C102.849 27.832 102.681 27.652 102.441 27.508C102.213 27.364 101.907 27.238 101.523 27.13C101.139 27.022 100.659 26.914 100.083 26.806C99.6268 26.722 99.2128 26.62 98.8408 26.5C98.4688 26.368 98.1448 26.212 97.8688 26.032C97.5928 25.84 97.3768 25.612 97.2208 25.348C97.0768 25.072 97.0048 24.742 97.0048 24.358V24.07C97.0048 23.746 97.0708 23.44 97.2028 23.152C97.3468 22.852 97.5568 22.594 97.8328 22.378C98.1208 22.162 98.4688 21.994 98.8768 21.874C99.2968 21.742 99.7828 21.676 100.335 21.676C101.091 21.676 101.739 21.766 102.279 21.946C102.819 22.126 103.239 22.33 103.539 22.558L103.215 23.116C102.723 22.816 102.255 22.618 101.811 22.522C101.379 22.414 100.863 22.36 100.263 22.36C99.4468 22.36 98.8228 22.516 98.3908 22.828C97.9588 23.128 97.7428 23.548 97.7428 24.088V24.322C97.7428 24.61 97.8088 24.856 97.9408 25.06C98.0848 25.264 98.2768 25.432 98.5168 25.564C98.7568 25.696 99.0388 25.81 99.3628 25.906C99.6988 25.99 100.059 26.068 100.443 26.14C101.031 26.248 101.535 26.368 101.955 26.5C102.387 26.632 102.735 26.8 102.999 27.004C103.275 27.196 103.473 27.436 103.593 27.724C103.725 28 103.791 28.354 103.791 28.786V29.11C103.791 29.518 103.695 29.878 103.503 30.19C103.311 30.502 103.053 30.766 102.729 30.982C102.417 31.186 102.051 31.342 101.631 31.45C101.211 31.558 100.779 31.612 100.335 31.612C99.5908 31.612 98.9128 31.504 98.3008 31.288C97.6888 31.072 97.1788 30.808 96.7708 30.496L97.1488 29.884C97.5928 30.196 98.0848 30.448 98.6248 30.64C99.1768 30.832 99.7228 30.928 100.263 30.928ZM106.998 17.86V31.468H106.224V17.86H106.998ZM112.647 31.612C112.203 31.612 111.789 31.552 111.405 31.432C111.021 31.312 110.691 31.138 110.415 30.91C110.139 30.67 109.917 30.382 109.749 30.046C109.593 29.698 109.515 29.296 109.515 28.84V28.57C109.515 28.21 109.575 27.874 109.695 27.562C109.827 27.238 110.025 26.962 110.289 26.734C110.565 26.494 110.907 26.308 111.315 26.176C111.723 26.032 112.209 25.96 112.773 25.96H115.707V24.79C115.707 23.998 115.491 23.398 115.059 22.99C114.639 22.582 114.003 22.378 113.151 22.378C112.623 22.378 112.125 22.468 111.657 22.648C111.201 22.816 110.751 23.05 110.307 23.35L109.929 22.756C110.349 22.456 110.835 22.204 111.387 22C111.939 21.784 112.545 21.676 113.205 21.676C114.213 21.676 115.011 21.94 115.599 22.468C116.187 22.996 116.481 23.758 116.481 24.754V31.468H115.707V30.118H115.689C115.593 30.286 115.461 30.466 115.293 30.658C115.125 30.838 114.921 30.994 114.681 31.126C114.417 31.27 114.123 31.384 113.799 31.468C113.475 31.564 113.091 31.612 112.647 31.612ZM115.707 26.626H112.791C112.335 26.626 111.945 26.68 111.621 26.788C111.309 26.884 111.057 27.022 110.865 27.202C110.673 27.37 110.535 27.574 110.451 27.814C110.367 28.042 110.325 28.288 110.325 28.552V28.84C110.325 29.236 110.397 29.566 110.541 29.83C110.685 30.094 110.865 30.31 111.081 30.478C111.309 30.634 111.561 30.748 111.837 30.82C112.125 30.892 112.413 30.928 112.701 30.928C113.013 30.928 113.313 30.904 113.601 30.856C113.889 30.796 114.171 30.694 114.447 30.55C114.831 30.358 115.137 30.094 115.365 29.758C115.593 29.422 115.707 29.062 115.707 28.678V26.626ZM120.001 22.522H118.327V21.874H120.001V19.39H120.775V21.874H123.493V22.522H120.775V28.714C120.775 29.434 120.865 29.974 121.045 30.334C121.237 30.694 121.639 30.874 122.251 30.874C122.527 30.874 122.773 30.856 122.989 30.82C123.217 30.784 123.445 30.736 123.673 30.676L123.799 31.306C123.619 31.366 123.379 31.42 123.079 31.468C122.791 31.516 122.539 31.54 122.323 31.54C121.987 31.54 121.675 31.504 121.387 31.432C121.111 31.372 120.865 31.246 120.649 31.054C120.445 30.874 120.283 30.616 120.163 30.28C120.055 29.932 120.001 29.476 120.001 28.912V22.522ZM126.809 21.874V31.468H126.035V21.874H126.809ZM126.881 18.724V19.786H125.963V18.724H126.881ZM133.411 21.676C134.659 21.676 135.625 22.054 136.309 22.81C137.005 23.566 137.353 24.634 137.353 26.014V27.274C137.353 28.654 137.005 29.722 136.309 30.478C135.625 31.234 134.659 31.612 133.411 31.612C132.163 31.612 131.191 31.234 130.495 30.478C129.811 29.722 129.469 28.654 129.469 27.274V26.014C129.469 24.634 129.811 23.566 130.495 22.81C131.191 22.054 132.163 21.676 133.411 21.676ZM133.411 30.946C134.383 30.946 135.151 30.646 135.715 30.046C136.291 29.446 136.579 28.522 136.579 27.274V26.014C136.579 24.766 136.291 23.842 135.715 23.242C135.151 22.642 134.383 22.342 133.411 22.342C132.439 22.342 131.665 22.642 131.089 23.242C130.525 23.842 130.243 24.766 130.243 26.014V27.274C130.243 28.522 130.525 29.446 131.089 30.046C131.665 30.646 132.439 30.946 133.411 30.946ZM147.228 31.468H146.454V25.096C146.454 24.256 146.25 23.596 145.842 23.116C145.446 22.624 144.756 22.378 143.772 22.378C143.256 22.378 142.806 22.474 142.422 22.666C142.05 22.846 141.738 23.074 141.486 23.35C141.234 23.614 141.048 23.896 140.928 24.196C140.808 24.484 140.748 24.736 140.748 24.952V31.468H139.974V21.874H140.73V23.35C140.814 23.182 140.94 23.002 141.108 22.81C141.288 22.618 141.504 22.438 141.756 22.27C142.02 22.102 142.326 21.964 142.674 21.856C143.034 21.736 143.442 21.676 143.898 21.676C144.498 21.676 145.008 21.766 145.428 21.946C145.86 22.114 146.208 22.348 146.472 22.648C146.736 22.948 146.928 23.29 147.048 23.674C147.168 24.058 147.228 24.454 147.228 24.862V31.468Z" fill="#F5F5F5"/>
<defs>
<filter id="filter0_ii" x="-2" y="-2" width="180" height="50" filterUnits="userSpaceOnUse" color-interpolation-filters="sRGB">
<feFlood flood-opacity="0" result="BackgroundImageFix"/>
<feBlend mode="normal" in="SourceGraphic" in2="BackgroundImageFix" result="shape"/>
<feColorMatrix in="SourceAlpha" type="matrix" values="0 0 0 0 0 0 0 0 0 0 0 0 0 0 0 0 0 0 127 0" result="hardAlpha"/>
<feOffset dx="-2" dy="-2"/>
<feGaussianBlur stdDeviation="5"/>
<feComposite in2="hardAlpha" operator="arithmetic" k2="-1" k3="1"/>
<feColorMatrix type="matrix" values="0 0 0 0 0 0 0 0 0 0 0 0 0 0 0 0 0 0 0.5 0"/>
<feBlend mode="normal" in2="shape" result="effect1_innerShadow"/>
<feColorMatrix in="SourceAlpha" type="matrix" values="0 0 0 0 0 0 0 0 0 0 0 0 0 0 0 0 0 0 127 0" result="hardAlpha"/>
<feOffset dx="2" dy="2"/>
<feGaussianBlur stdDeviation="10"/>
<feComposite in2="hardAlpha" operator="arithmetic" k2="-1" k3="1"/>
<feColorMatrix type="matrix" values="0 0 0 0 1 0 0 0 0 1 0 0 0 0 1 0 0 0 0.2 0"/>
<feBlend mode="normal" in2="effect1_innerShadow" result="effect2_innerShadow"/>
</filter>
</defs>
</svg>
