<svg width="322" height="237" viewBox="0 0 322 237" fill="none" xmlns="http://www.w3.org/2000/svg">
<g clip-path="url(#clip0)" filter="url(#filter0_ii)">
<path opacity="0.1" d="M231.988 194.737C238.011 196.92 245.359 195.591 252.195 195.746C253.13 195.769 254.12 195.83 254.872 196.206C255.623 196.582 255.99 197.194 256.505 197.719C258.419 199.663 262.331 200.29 265.773 199.958C269.216 199.625 272.347 198.535 275.586 197.704C281.181 196.265 287.574 195.612 293.093 197.18C293.599 197.363 294.136 197.448 294.674 197.43C295.886 197.302 296.244 196.265 297.092 195.664C298.618 194.588 301.935 194.88 302.608 193.46C303.001 192.63 302.096 191.779 301.111 191.21C297.325 189.039 291.945 188.68 287.009 189.015C282.072 189.35 277.211 190.274 272.259 190.277C266.079 190.277 260.105 188.861 253.986 188.278C249.745 187.876 245.117 187.928 241.142 189.111C236.831 190.397 235.882 193.277 231.988 194.737Z" fill="#6C63FF"/>
<path d="M153.398 202.555C181.284 202.555 203.89 198.341 203.89 193.143C203.89 187.945 181.284 183.731 153.398 183.731C125.512 183.731 102.906 187.945 102.906 193.143C102.906 198.341 125.512 202.555 153.398 202.555Z" fill="#6C63FF"/>
<path opacity="0.1" d="M3.27368 227.629C14.7258 231.482 28.6973 229.139 41.6902 229.41C43.4698 229.448 45.3513 229.558 46.7784 230.223C48.2056 230.887 48.9075 231.972 49.8861 232.893C53.5268 236.33 60.9888 237.426 67.5071 236.843C74.0254 236.26 80.0048 234.33 86.1474 232.858C96.7869 230.316 108.947 229.162 119.438 231.931C120.399 232.185 121.413 232.479 122.447 232.377C124.747 232.15 125.432 230.307 127.04 229.252C129.952 227.352 136.252 227.868 137.525 225.364C138.273 223.906 136.552 222.391 134.679 221.388C127.509 217.552 117.251 216.919 107.866 217.511C98.4821 218.103 89.2522 219.735 79.8213 219.741C68.0896 219.756 56.7306 217.246 45.0804 216.22C37.0214 215.509 28.2226 215.596 20.6645 217.677C12.4803 219.96 10.6774 225.046 3.27368 227.629Z" fill="#6C63FF"/>
<path opacity="0.1" d="M5.91541 125.331C10.9716 146.959 21.6752 165.655 38.5913 174.718C73.7458 193.551 153.028 183.836 212.2 172.677C242.099 167.057 269.239 151.53 289.248 128.596L5.91541 125.331Z" fill="#6C63FF"/>
<path opacity="0.1" d="M316.207 23.526H283.741C282.997 23.526 282.283 23.2302 281.757 22.7038C281.231 22.1774 280.936 21.4634 280.936 20.7189C280.936 19.9745 281.231 19.2605 281.757 18.7341C282.283 18.2076 282.997 17.9119 283.741 17.9119H289.35C288.622 17.8884 287.931 17.5822 287.424 17.0581C286.917 16.534 286.633 15.833 286.633 15.1034C286.633 14.3738 286.917 13.6729 287.424 13.1487C287.931 12.6246 288.622 12.3184 289.35 12.2949H285.343C284.614 12.2714 283.923 11.9652 283.416 11.4411C282.909 10.917 282.625 10.216 282.625 9.48644C282.625 8.75687 282.909 8.0559 283.416 7.53177C283.923 7.00764 284.614 6.70145 285.343 6.67796H302.288C298.528 4.92903 294.147 3.68438 289.071 3.03144C242.866 -2.90616 226.369 1.02892 220.547 5.06311C213.368 10.0476 205.358 13.7145 196.801 15.4809C168.281 21.366 114.982 28.4492 66.6566 13.2131C42.6368 5.63443 24.7887 18.4366 14.088 39.8201H321.843C321.441 33.6056 320.238 27.8691 318.03 22.8439C317.524 23.2829 316.877 23.525 316.207 23.526V23.526Z" fill="#6C63FF"/>
<path opacity="0.1" d="M3.16013 80.1854C1.91317 92.7627 2.33724 105.45 4.42127 117.916L289.467 128.348C297.402 119.213 304.064 109.045 309.272 98.1207L3.16013 80.1854ZM115.899 107.107H110.29C111.033 107.107 111.747 107.403 112.273 107.929C112.799 108.456 113.094 109.17 113.094 109.914C113.094 110.659 112.799 111.373 112.273 111.899C111.747 112.426 111.033 112.721 110.29 112.721H77.8234C77.0795 112.721 76.3661 112.426 75.8401 111.899C75.3141 111.373 75.0186 110.659 75.0186 109.914C75.0186 109.17 75.3141 108.456 75.8401 107.929C76.3661 107.403 77.0795 107.107 77.8234 107.107H83.4329C82.7043 107.084 82.0134 106.778 81.5063 106.253C80.9992 105.729 80.7157 105.028 80.7157 104.299C80.7157 103.569 80.9992 102.868 81.5063 102.344C82.0134 101.82 82.7043 101.514 83.4329 101.49H79.4253C78.6967 101.467 78.0058 101.161 77.4986 100.636C76.9915 100.112 76.708 99.4114 76.708 98.6818C76.708 97.9522 76.9915 97.2512 77.4986 96.7271C78.0058 96.203 78.6967 95.8968 79.4253 95.8733H111.891C112.62 95.8968 113.311 96.203 113.818 96.7271C114.325 97.2512 114.609 97.9522 114.609 98.6818C114.609 99.4114 114.325 100.112 113.818 100.636C113.311 101.161 112.62 101.467 111.891 101.49H115.899C116.275 101.478 116.65 101.542 117.001 101.677C117.352 101.813 117.672 102.018 117.943 102.28C118.213 102.542 118.428 102.856 118.575 103.203C118.722 103.549 118.797 103.922 118.797 104.299C118.797 104.675 118.722 105.048 118.575 105.395C118.428 105.742 118.213 106.055 117.943 106.317C117.672 106.579 117.352 106.784 117.001 106.92C116.65 107.056 116.275 107.119 115.899 107.107V107.107Z" fill="#6C63FF"/>
<path opacity="0.1" d="M321.857 40.0154L10.6541 47.5912C6.86783 57.3327 4.36012 68.3422 3.20093 79.7539H316.402C318.446 73.0502 319.959 66.1955 320.925 59.2536C321.857 52.5464 322.23 46.0579 321.857 40.0154ZM66.3858 64.8414H60.7762C61.1446 64.8414 61.5093 64.914 61.8496 65.0551C62.1899 65.1961 62.4991 65.4029 62.7595 65.6636C63.02 65.9242 63.2266 66.2337 63.3675 66.5742C63.5085 66.9148 63.581 67.2798 63.581 67.6484C63.581 68.017 63.5085 68.3821 63.3675 68.7226C63.2266 69.0632 63.02 69.3726 62.7595 69.6333C62.4991 69.894 62.1899 70.1007 61.8496 70.2418C61.5093 70.3829 61.1446 70.4555 60.7762 70.4555H28.31C27.9417 70.4555 27.577 70.3829 27.2367 70.2418C26.8964 70.1007 26.5872 69.894 26.3267 69.6333C26.0663 69.3726 25.8597 69.0632 25.7187 68.7226C25.5778 68.3821 25.5052 68.017 25.5052 67.6484C25.5052 67.2798 25.5778 66.9148 25.7187 66.5742C25.8597 66.2337 26.0663 65.9242 26.3267 65.6636C26.5872 65.4029 26.8964 65.1961 27.2367 65.0551C27.577 64.914 27.9417 64.8414 28.31 64.8414H33.9196C33.191 64.8179 32.5001 64.5117 31.993 63.9876C31.4859 63.4635 31.2023 62.7625 31.2023 62.0329C31.2023 61.3033 31.4859 60.6024 31.993 60.0782C32.5001 59.5541 33.191 59.2479 33.9196 59.2244H29.9119C29.1833 59.2009 28.4924 58.8947 27.9853 58.3706C27.4782 57.8465 27.1946 57.1455 27.1946 56.4159C27.1946 55.6864 27.4782 54.9854 27.9853 54.4613C28.4924 53.9371 29.1833 53.631 29.9119 53.6075H62.3781C63.1068 53.631 63.7977 53.9371 64.3048 54.4613C64.8119 54.9854 65.0954 55.6864 65.0954 56.4159C65.0954 57.1455 64.8119 57.8465 64.3048 58.3706C63.7977 58.8947 63.1068 59.2009 62.3781 59.2244H66.3858C66.7619 59.2123 67.1367 59.276 67.4877 59.4117C67.8388 59.5473 68.159 59.7523 68.4293 60.0142C68.6997 60.2762 68.9147 60.5899 69.0615 60.9367C69.2083 61.2835 69.2839 61.6563 69.2839 62.0329C69.2839 62.4095 69.2083 62.7823 69.0615 63.1291C68.9147 63.4759 68.6997 63.7896 68.4293 64.0516C68.159 64.3136 67.8388 64.5185 67.4877 64.6542C67.1367 64.7899 66.7619 64.8535 66.3858 64.8414V64.8414Z" fill="#6C63FF"/>
<g opacity="0.1">
<path opacity="0.1" d="M184.333 171.981C184.333 171.981 192.546 151.728 207.892 144.208C214.347 141.098 219.618 135.975 222.915 129.61C224.456 126.577 225.717 123.409 226.681 120.146" stroke="#535461" stroke-width="2" stroke-miterlimit="10"/>
<path opacity="0.1" d="M236.31 115.35C234.711 117.362 226.436 120.306 226.436 120.306C226.436 120.306 227.432 111.576 229.031 109.564C229.826 108.686 230.925 108.142 232.106 108.046C233.286 107.949 234.459 108.305 235.386 109.043C236.313 109.78 236.925 110.843 237.097 112.016C237.269 113.189 236.989 114.383 236.313 115.356L236.31 115.35Z" fill="#6C63FF"/>
<path opacity="0.1" d="M233.47 131.283C231.035 132.102 222.493 130.065 222.493 130.065C222.493 130.065 228.07 123.279 230.505 122.46C231.65 122.154 232.868 122.295 233.912 122.856C234.956 123.417 235.748 124.355 236.125 125.479C236.503 126.603 236.439 127.829 235.945 128.907C235.452 129.985 234.567 130.835 233.47 131.283Z" fill="#6C63FF"/>
<path opacity="0.1" d="M218.086 150.116C215.57 149.592 209.226 143.52 209.226 143.52C209.226 143.52 217.463 140.48 219.976 141.001C220.607 141.091 221.212 141.31 221.755 141.643C222.297 141.976 222.766 142.417 223.132 142.938C223.498 143.459 223.753 144.05 223.882 144.674C224.011 145.299 224.011 145.942 223.882 146.566C223.752 147.19 223.496 147.781 223.13 148.302C222.764 148.823 222.294 149.264 221.751 149.596C221.208 149.929 220.603 150.147 219.972 150.236C219.342 150.326 218.7 150.285 218.086 150.116Z" fill="#6C63FF"/>
<path opacity="0.1" d="M203.232 161.738C200.666 161.648 193.388 156.736 193.388 156.736C193.388 156.736 200.992 152.346 203.558 152.436C204.196 152.417 204.831 152.528 205.424 152.764C206.017 152.999 206.555 153.354 207.005 153.807C207.456 154.259 207.808 154.799 208.041 155.393C208.275 155.988 208.383 156.623 208.361 157.262C208.339 157.9 208.186 158.526 207.911 159.103C207.637 159.679 207.247 160.193 206.767 160.613C206.286 161.033 205.724 161.349 205.116 161.543C204.508 161.736 203.867 161.803 203.232 161.738V161.738Z" fill="#6C63FF"/>
<path opacity="0.1" d="M214.541 124.372C214.871 126.923 220.434 133.72 220.434 133.72C220.434 133.72 224.095 125.733 223.765 123.183C223.538 122.021 222.877 120.989 221.917 120.296C220.958 119.604 219.77 119.302 218.597 119.454C217.423 119.605 216.351 120.198 215.598 121.111C214.845 122.024 214.467 123.19 214.541 124.372V124.372Z" fill="#6C63FF"/>
<path opacity="0.1" d="M197.343 138.186C198.418 140.518 205.757 145.342 205.757 145.342C205.757 145.342 206.864 136.626 205.789 134.291C205.561 133.695 205.213 133.152 204.767 132.695C204.321 132.239 203.786 131.879 203.195 131.638C202.604 131.397 201.97 131.28 201.332 131.295C200.694 131.309 200.066 131.454 199.487 131.721C198.907 131.989 198.389 132.372 197.963 132.848C197.538 133.324 197.215 133.882 197.014 134.488C196.813 135.094 196.738 135.735 196.795 136.371C196.851 137.007 197.038 137.625 197.343 138.186Z" fill="#6C63FF"/>
<path opacity="0.1" d="M182.466 153.908C183.135 156.392 189.543 162.385 189.543 162.385C189.543 162.385 192.103 153.981 191.439 151.498C191.315 150.872 191.064 150.277 190.701 149.752C190.338 149.227 189.871 148.782 189.33 148.445C188.788 148.107 188.183 147.885 187.552 147.791C186.921 147.698 186.277 147.734 185.661 147.9C185.045 148.065 184.469 148.356 183.969 148.753C183.47 149.15 183.057 149.645 182.757 150.209C182.456 150.772 182.275 151.391 182.223 152.027C182.171 152.664 182.251 153.304 182.457 153.908H182.466Z" fill="#6C63FF"/>
<path opacity="0.25" d="M236.31 115.35C234.711 117.362 226.436 120.306 226.436 120.306C226.436 120.306 227.432 111.576 229.031 109.564C229.826 108.686 230.925 108.142 232.106 108.046C233.286 107.949 234.459 108.305 235.386 109.043C236.313 109.78 236.925 110.843 237.097 112.016C237.269 113.189 236.989 114.383 236.313 115.356L236.31 115.35Z" fill="black"/>
<path opacity="0.25" d="M233.47 131.283C231.035 132.102 222.493 130.065 222.493 130.065C222.493 130.065 228.07 123.279 230.505 122.46C231.65 122.154 232.868 122.295 233.912 122.856C234.956 123.417 235.748 124.355 236.125 125.479C236.503 126.603 236.439 127.829 235.945 128.907C235.452 129.985 234.567 130.835 233.47 131.283Z" fill="black"/>
<path opacity="0.25" d="M218.086 150.116C215.57 149.592 209.226 143.52 209.226 143.52C209.226 143.52 217.463 140.48 219.976 141.001C220.607 141.091 221.212 141.31 221.755 141.643C222.297 141.976 222.766 142.417 223.132 142.938C223.498 143.459 223.753 144.05 223.882 144.674C224.011 145.299 224.011 145.942 223.882 146.566C223.752 147.19 223.496 147.781 223.13 148.302C222.764 148.823 222.294 149.264 221.751 149.596C221.208 149.929 220.603 150.147 219.972 150.236C219.342 150.326 218.7 150.285 218.086 150.116Z" fill="black"/>
<path opacity="0.25" d="M203.232 161.738C200.666 161.648 193.388 156.736 193.388 156.736C193.388 156.736 200.992 152.346 203.558 152.436C204.196 152.417 204.831 152.528 205.424 152.764C206.017 152.999 206.555 153.354 207.005 153.807C207.456 154.259 207.808 154.799 208.041 155.393C208.275 155.988 208.383 156.623 208.361 157.262C208.339 157.9 208.186 158.526 207.911 159.103C207.637 159.679 207.247 160.193 206.767 160.613C206.286 161.033 205.724 161.349 205.116 161.543C204.508 161.736 203.867 161.803 203.232 161.738V161.738Z" fill="black"/>
<path opacity="0.25" d="M214.541 124.372C214.871 126.923 220.434 133.72 220.434 133.72C220.434 133.72 224.095 125.733 223.765 123.183C223.538 122.021 222.877 120.989 221.917 120.296C220.958 119.604 219.77 119.302 218.597 119.454C217.423 119.605 216.351 120.198 215.598 121.111C214.845 122.024 214.467 123.19 214.541 124.372V124.372Z" fill="black"/>
<path opacity="0.25" d="M197.343 138.186C198.418 140.518 205.757 145.342 205.757 145.342C205.757 145.342 206.864 136.626 205.789 134.291C205.561 133.695 205.213 133.152 204.767 132.695C204.321 132.239 203.786 131.879 203.195 131.638C202.604 131.397 201.97 131.28 201.332 131.295C200.694 131.309 200.066 131.454 199.487 131.721C198.907 131.989 198.389 132.372 197.963 132.848C197.538 133.324 197.215 133.882 197.014 134.488C196.813 135.094 196.738 135.735 196.795 136.371C196.851 137.007 197.038 137.625 197.343 138.186Z" fill="black"/>
<path opacity="0.25" d="M182.466 153.908C183.135 156.392 189.543 162.385 189.543 162.385C189.543 162.385 192.103 153.981 191.439 151.498C191.315 150.872 191.064 150.277 190.701 149.752C190.338 149.227 189.871 148.782 189.33 148.445C188.788 148.107 188.183 147.885 187.552 147.791C186.921 147.698 186.277 147.734 185.661 147.9C185.045 148.065 184.469 148.356 183.969 148.753C183.47 149.15 183.057 149.645 182.757 150.209C182.456 150.772 182.275 151.391 182.223 152.027C182.171 152.664 182.251 153.304 182.457 153.908H182.466Z" fill="black"/>
</g>
<g opacity="0.1">
<path opacity="0.1" d="M178.502 142.36C178.502 142.36 179.538 120.521 191.518 108.34C196.577 103.265 199.852 96.684 200.853 89.5858C201.303 86.2119 201.442 82.8037 201.269 79.4042" stroke="#535461" stroke-width="2" stroke-miterlimit="10"/>
<path opacity="0.1" d="M208.766 71.6856C207.924 74.1137 201.088 79.6287 201.088 79.6287C201.088 79.6287 199.137 71.0618 199.979 68.6337C200.438 67.5408 201.295 66.6637 202.377 66.1808C203.459 65.6979 204.684 65.6455 205.803 66.0341C206.922 66.4228 207.851 67.2234 208.401 68.2732C208.952 69.323 209.082 70.5432 208.766 71.6856Z" fill="#6C63FF"/>
<path opacity="0.1" d="M211.387 87.6562C209.348 89.2361 200.631 90.1514 200.631 90.1514C200.631 90.1514 203.643 81.8964 205.67 80.3166C206.146 79.8908 206.704 79.5674 207.31 79.3664C207.916 79.1655 208.557 79.0913 209.192 79.1485C209.828 79.2056 210.446 79.3929 211.006 79.6987C211.567 80.0045 212.058 80.4223 212.451 80.9261C212.843 81.43 213.128 82.0092 213.288 82.6278C213.447 83.2464 213.478 83.8912 213.378 84.5222C213.279 85.1532 213.051 85.757 212.708 86.2962C212.365 86.8353 211.916 87.2982 211.387 87.6562Z" fill="#6C63FF"/>
<path opacity="0.1" d="M203.089 110.532C200.544 110.873 192.543 107.25 192.543 107.25C192.543 107.25 199.309 101.648 201.863 101.307C203.044 101.226 204.211 101.598 205.128 102.347C206.045 103.096 206.643 104.166 206.8 105.34C206.957 106.514 206.662 107.704 205.975 108.669C205.287 109.633 204.259 110.299 203.098 110.532H203.089Z" fill="#6C63FF"/>
<path opacity="0.1" d="M192.927 126.43C190.475 127.197 181.979 124.973 181.979 124.973C181.979 124.973 187.699 118.306 190.152 117.54C191.303 117.259 192.517 117.427 193.549 118.01C194.58 118.593 195.351 119.547 195.704 120.679C196.058 121.81 195.967 123.034 195.452 124.101C194.936 125.168 194.033 125.999 192.927 126.424V126.43Z" fill="#6C63FF"/>
<path opacity="0.1" d="M191.226 87.4173C192.392 89.7142 199.883 94.2818 199.883 94.2818C199.883 94.2818 200.689 85.5372 199.536 83.2373C198.936 82.2166 197.972 81.4623 196.837 81.1273C195.702 80.7923 194.483 80.9018 193.426 81.4335C192.369 81.9653 191.553 82.8794 191.145 83.9906C190.736 85.1018 190.766 86.3268 191.226 87.4173Z" fill="#6C63FF"/>
<path opacity="0.1" d="M179.579 106.16C181.365 108.005 189.887 110.118 189.887 110.118C189.887 110.118 188.043 101.528 186.255 99.6802C185.842 99.1934 185.334 98.7966 184.761 98.5144C184.189 98.2323 183.565 98.0707 182.928 98.0398C182.29 98.0088 181.653 98.1092 181.057 98.3346C180.46 98.5601 179.915 98.9057 179.457 99.3503C178.999 99.7948 178.638 100.329 178.394 100.919C178.151 101.509 178.031 102.143 178.042 102.782C178.054 103.42 178.196 104.049 178.461 104.63C178.725 105.211 179.106 105.732 179.579 106.16V106.16Z" fill="#6C63FF"/>
<path opacity="0.1" d="M170.751 125.931C172.208 128.051 180.246 131.575 180.246 131.575C180.246 131.575 179.879 122.795 178.429 120.673C178.106 120.12 177.674 119.639 177.157 119.261C176.641 118.883 176.053 118.615 175.429 118.474C174.804 118.333 174.158 118.322 173.53 118.442C172.901 118.562 172.304 118.811 171.776 119.172C171.247 119.533 170.799 119.999 170.458 120.541C170.118 121.083 169.893 121.69 169.796 122.323C169.7 122.956 169.735 123.602 169.9 124.221C170.064 124.84 170.354 125.418 170.751 125.92V125.931Z" fill="#6C63FF"/>
</g>
<path d="M109.5 30.3993H107.523V58.3705H109.5V30.3993Z" fill="#535461"/>
<path d="M109.5 67.9779H107.523V83.7999H109.5V67.9779Z" fill="#535461"/>
<path d="M184.146 2.99353H122.653C115.077 2.99353 108.935 9.14025 108.935 16.7226V182.521C108.935 190.103 115.077 196.25 122.653 196.25H184.146C191.722 196.25 197.864 190.103 197.864 182.521V16.7226C197.864 9.14025 191.722 2.99353 184.146 2.99353Z" fill="#535461"/>
<path d="M184.146 12.0355H122.653C115.077 12.0355 108.935 18.1822 108.935 25.7646V174.327C108.935 181.91 115.077 188.056 122.653 188.056H184.146C191.722 188.056 197.864 181.91 197.864 174.327V25.7646C197.864 18.1822 191.722 12.0355 184.146 12.0355Z" fill="#6C63FF"/>
<path d="M159.981 7.23181H147.096C146.6 7.23181 146.198 7.63376 146.198 8.12959V8.31323C146.198 8.80906 146.6 9.21101 147.096 9.21101H159.981C160.476 9.21101 160.878 8.80906 160.878 8.31323V8.12959C160.878 7.63376 160.476 7.23181 159.981 7.23181Z" fill="#EAEAF3"/>
<path d="M165.96 9.77653C166.74 9.77653 167.373 9.14359 167.373 8.36281C167.373 7.58204 166.74 6.9491 165.96 6.9491C165.18 6.9491 164.547 7.58204 164.547 8.36281C164.547 9.14359 165.18 9.77653 165.96 9.77653Z" fill="#EAEAF3"/>
<path d="M123.428 152.355V147.108C123.428 147.068 123.444 147.029 123.472 147.001C123.501 146.973 123.539 146.957 123.58 146.957H124.162C124.182 146.957 124.201 146.96 124.22 146.968C124.238 146.976 124.254 146.987 124.268 147.001C124.282 147.015 124.293 147.032 124.3 147.05C124.307 147.069 124.311 147.088 124.311 147.108V149.294L126.734 147.05C126.792 147.002 126.863 146.971 126.938 146.962C127.012 146.953 127.088 146.965 127.157 146.997C127.225 147.029 127.283 147.079 127.323 147.143C127.364 147.207 127.386 147.28 127.386 147.356V152.107C127.386 152.183 127.364 152.256 127.323 152.32C127.283 152.384 127.225 152.434 127.157 152.466C127.088 152.498 127.012 152.51 126.938 152.501C126.863 152.492 126.792 152.461 126.734 152.413L124.302 150.18V152.355C124.302 152.375 124.299 152.394 124.291 152.413C124.284 152.431 124.273 152.448 124.259 152.462C124.246 152.476 124.229 152.487 124.211 152.495C124.193 152.503 124.173 152.506 124.153 152.506H123.571C123.532 152.504 123.496 152.487 123.469 152.459C123.443 152.431 123.428 152.394 123.428 152.355V152.355Z" fill="#535461"/>
<path d="M181.97 147.096V152.343C181.971 152.363 181.967 152.383 181.96 152.401C181.953 152.419 181.942 152.436 181.928 152.45C181.914 152.464 181.898 152.476 181.879 152.483C181.861 152.491 181.842 152.495 181.822 152.495H181.225C181.205 152.495 181.185 152.491 181.167 152.483C181.149 152.476 181.132 152.464 181.119 152.45C181.105 152.436 181.094 152.419 181.087 152.401C181.079 152.383 181.076 152.363 181.076 152.343V150.157L178.653 152.402C178.595 152.45 178.525 152.481 178.45 152.49C178.375 152.5 178.299 152.488 178.231 152.455C178.163 152.423 178.105 152.372 178.065 152.309C178.024 152.245 178.003 152.171 178.003 152.095V147.356C178.003 147.28 178.024 147.206 178.065 147.143C178.105 147.079 178.163 147.028 178.231 146.996C178.299 146.964 178.375 146.952 178.45 146.961C178.525 146.971 178.595 147.002 178.653 147.05L181.076 149.283V147.108C181.076 147.088 181.079 147.069 181.087 147.05C181.094 147.032 181.105 147.015 181.119 147.001C181.132 146.987 181.149 146.976 181.167 146.968C181.185 146.96 181.205 146.957 181.225 146.957H181.822C181.86 146.956 181.896 146.971 181.924 146.997C181.951 147.023 181.968 147.059 181.97 147.096V147.096Z" fill="#535461"/>
<path d="M151.703 152.603H150.515C150.36 152.603 150.212 152.541 150.103 152.432C149.994 152.323 149.932 152.174 149.932 152.02V147.647C149.932 147.493 149.994 147.344 150.103 147.235C150.212 147.126 150.36 147.064 150.515 147.064H151.7C151.855 147.064 152.003 147.126 152.112 147.235C152.221 147.344 152.283 147.493 152.283 147.647V151.999C152.285 152.077 152.272 152.155 152.245 152.228C152.217 152.301 152.175 152.367 152.12 152.424C152.066 152.48 152.002 152.525 151.93 152.556C151.858 152.586 151.781 152.602 151.703 152.603ZM155.46 152.02V147.647C155.46 147.493 155.399 147.344 155.29 147.235C155.18 147.126 155.032 147.064 154.878 147.064H153.692C153.538 147.064 153.39 147.126 153.28 147.235C153.171 147.344 153.11 147.493 153.11 147.647V151.999C153.11 152.154 153.171 152.302 153.28 152.411C153.39 152.521 153.538 152.582 153.692 152.582H154.878C154.955 152.583 155.031 152.568 155.102 152.539C155.174 152.511 155.239 152.468 155.293 152.414C155.348 152.359 155.392 152.295 155.421 152.224C155.451 152.153 155.466 152.076 155.466 151.999L155.46 152.02Z" fill="#535461"/>
<path d="M187.641 140.005H117.74V140.783H187.641V140.005Z" fill="#EAEAF3"/>
<path d="M139.325 142.237C140.343 142.237 141.168 141.411 141.168 140.392C141.168 139.373 140.343 138.547 139.325 138.547C138.307 138.547 137.481 139.373 137.481 140.392C137.481 141.411 138.307 142.237 139.325 142.237Z" fill="#535461"/>
<path d="M139.325 140.005H117.74V140.783H139.325V140.005Z" fill="#535461"/>
<path d="M97.5064 110.946C97.5064 110.946 95.0132 104.589 86.5377 98.9164C78.0622 93.244 78.1612 89.8803 78.1612 89.8803C78.1612 89.8803 76.568 77.9817 74.4739 74.6588C72.3798 71.3358 71.1827 66.5408 71.1827 66.5408C71.1827 66.5408 71.0954 66.6574 70.9526 66.8323C70.9526 66.7507 70.9352 66.6662 70.9235 66.5758C70.7109 64.8152 70.1633 61.5127 69.2546 62.5329C69.2546 62.5329 69.0478 62.7019 68.7012 62.9701L68.5585 62.7865C67.7226 61.7051 66.3596 59.9037 66.3596 59.6005C66.3596 59.1604 55.9414 51.1474 53.2968 49.9144C51.4327 49.0399 47.428 46.7984 45.2377 45.5421C44.2115 44.9602 43.0149 44.754 41.8533 44.9591C38.6495 45.5158 32.5332 46.9587 33.3545 49.7162C34.4496 53.4326 38.6874 52.4066 41.5796 50.2991C41.5796 50.2991 44.1251 49.3227 47.0144 52.2084C49.9036 55.0941 61.7752 63.6026 61.7752 63.6026L62.7625 66.3426L62.8558 66.605C62.5123 66.7405 62.1439 66.8011 61.7752 66.7828C60.8781 66.6691 61.2451 67.5494 61.9004 68.5317C61.9907 68.6658 62.0868 68.8028 62.1917 68.9369C62.0723 68.8902 61.9558 68.8465 61.8334 68.7911C61.8334 68.7911 61.9034 68.9252 62.0228 69.1642L61.8334 69.0855C61.8334 69.0855 66.4207 77.8885 66.7178 79.5529C66.848 80.2805 66.9191 81.0174 66.9304 81.7565C66.9304 82.5231 66.8197 83.1207 66.6188 83.2693C66.2198 83.5608 65.0227 86.5952 65.0227 86.5952L60.3364 86.7963C60.1966 86.7818 60.0451 86.7672 59.917 86.7468L59.6257 86.7031C59.6257 86.6652 59.6257 86.6302 59.6257 86.5923C59.6258 84.6426 58.9564 82.7522 57.7297 81.2377H57.7996C58.7898 79.0806 56.6578 76.8304 56.1948 74.4985C56.0848 73.7389 56.0361 72.9718 56.0491 72.2044C56.0388 71.8982 56.0126 71.5927 55.9705 71.2892C55.4899 68.0682 52.4317 65.92 49.4522 64.6957C47.7047 63.9699 45.6659 63.4307 43.9358 64.206C41.9145 65.1038 40.9388 67.4678 39.1156 68.7241C36.203 70.7324 32.239 69.3479 28.7614 69.9425C27.4129 70.1728 26.0469 70.7703 25.2664 71.91C24.579 72.9069 24.4217 74.1807 24.3926 75.3933C24.3081 78.6201 24.9547 81.9168 24.1013 85.0124C22.7179 90.0727 17.8918 93.1741 14.2831 96.9401C11.9832 99.3406 10.1115 102.118 8.74929 105.151C8.23377 106.303 7.83475 107.775 8.66483 108.725C9.13957 109.258 9.89101 109.451 10.3861 109.961C11.0182 110.611 11.1026 111.628 10.9861 112.532C10.5522 115.893 8.02989 118.501 6.03479 121.23C4.0397 123.958 2.52226 127.707 4.21154 130.627C5.66781 133.143 8.85414 133.895 11.691 134.417C12.5939 134.58 13.5521 134.74 14.4084 134.417C15.1802 134.125 15.754 133.455 16.2608 132.787C17.4303 131.25 18.4011 129.572 19.15 127.791C19.517 126.917 19.8811 125.958 20.6878 125.459C21.4014 125.031 22.2927 125.086 23.1256 125.153L29.3527 125.666C29.8784 125.749 30.416 125.712 30.9255 125.558C31.5135 125.277 31.9926 124.81 32.2885 124.229C32.7639 123.395 33.1375 122.506 33.4011 121.582C34.1496 119.157 34.5661 116.557 36.3137 114.82C37.8923 113.272 40.2281 112.809 42.43 112.78C43.7756 112.78 45.1183 112.902 46.461 112.957C46.8367 112.975 47.2183 112.987 47.594 112.987C47.8474 112.987 48.1008 112.987 48.3542 112.972C48.8522 116.429 49.4668 121.548 48.9862 122.964C48.2377 125.168 48.2872 126.584 48.2872 126.584L48.6309 126.753C48.5988 126.832 48.5668 126.914 48.5347 127.001C48.1736 127.978 47.9202 129.415 49.0357 130.327C49.2189 130.473 49.4137 130.604 49.6182 130.718L49.5337 130.963C48.4474 134.116 45.9542 141.494 45.7212 143.456C45.43 145.974 41.833 153.632 41.833 153.632C41.833 153.632 32.0613 161.674 40.8602 164.586C40.8602 164.586 41.7165 161.545 43.5543 159.187C44.6535 157.786 45.492 156.198 46.0299 154.5C46.2646 153.762 46.6103 153.064 47.0552 152.431C47.8386 151.317 49.4959 147.898 51.0454 144.56L52.2861 144.826C51.6628 147.522 51.4968 152.171 53.8123 159.566C53.8123 159.566 53.8618 159.858 53.9404 160.321C53.8907 160.286 53.8369 160.256 53.7802 160.234C52.6735 159.776 50.9376 161.353 49.9007 163.761C48.9541 165.962 48.9163 168.092 49.7697 168.789C49.8473 168.855 49.9347 168.91 50.0289 168.949C50.3364 169.062 50.6754 169.051 50.9755 168.92C50.9896 168.916 51.0032 168.91 51.0162 168.903C51.2622 168.802 51.4927 168.666 51.7007 168.5C52.5337 168.293 53.3841 167.894 54.2404 167.938C54.4662 167.95 54.6899 167.987 54.9074 168.049C54.9657 168.923 54.9948 169.771 54.9715 170.494C54.8579 174.348 54.788 176.032 54.788 176.032C54.788 176.032 54.223 178.892 53.7744 179.589C53.3259 180.285 52.8424 195.037 54.7093 202.112C54.7093 202.112 55.9821 208.971 55.42 210.142V210.166C55.1813 210.784 55.0408 211.436 55.0035 212.098C54.9558 212.668 54.9374 213.24 54.9482 213.812L52.2541 222.064C52.2541 222.064 52.1813 222.21 52.0851 222.449C51.7901 223.148 51.6798 223.911 51.7648 224.664C51.818 225.014 51.9537 225.346 52.1609 225.632V225.632C52.1609 225.632 51.7793 229.264 55.8744 229.2C59.9694 229.136 60.6859 226.39 60.6859 226.39L60.3946 225.104C60.427 225.002 60.4437 224.894 60.4442 224.787C60.4442 224.787 60.415 224.335 60.383 223.656C60.3102 221.869 60.2257 218.514 60.6335 217.744C61.1927 216.68 60.8548 212.133 60.8548 212.133L60.7063 210.894L60.5519 209.6L60.3335 207.767C60.3335 207.767 60.2694 199.955 60.9539 198.818C61.5888 197.766 63.6509 188.179 63.0392 181.754C62.9474 180.701 63.0733 179.641 63.4091 178.638C64.0208 176.749 64.8654 173.604 64.6324 171.38C64.6091 171.167 64.5946 170.893 64.5887 170.564C65.0564 171.288 65.6865 171.892 66.4287 172.33C67.171 172.767 68.005 173.025 68.8643 173.083H68.7828H69.0042C70.2646 173.142 71.5064 172.761 72.5167 172.004C74.6108 170.453 76.8855 167.868 78.1496 163.6C78.493 162.41 78.9083 161.242 79.3932 160.103C80.5582 157.435 82.5504 152.425 82.9815 148.837L83.1067 148.959C83.1067 148.959 85.9028 140.634 85.8241 137.381C85.8618 136.954 85.8021 136.523 85.6494 136.122L85.6173 135.865C85.6264 135.851 85.6372 135.839 85.6494 135.828C85.6494 135.828 84.5455 127.112 84.1552 119.679L87.7435 117C87.7435 117 86.0484 113.502 87.1435 112.847C88.2386 112.191 89.8376 116.315 89.8376 116.315C89.8376 116.315 100.5 116.913 97.5064 110.946ZM57.4704 120.58L59.7452 118.292C59.9636 119.548 59.4335 121.055 57.4151 122.781L57.3452 122.804C57.4704 121.55 57.4704 120.58 57.4704 120.58ZM54.7472 95.4273C54.7472 95.4273 54.4851 95.6284 54.0599 95.9694C53.987 95.5555 53.9113 95.1387 53.8298 94.7248C53.9579 94.8035 54.0832 94.8822 54.2026 94.9696C54.3952 95.1084 54.5773 95.2614 54.7472 95.4273V95.4273ZM66.2343 149.265L66.5256 146.843L67.1634 147.26C66.5856 148.945 66.1549 150.677 65.8761 152.436C66.0275 150.889 66.1469 149.731 66.1965 149.23L66.2343 149.265ZM65.6518 157.016C65.6844 157.47 65.628 157.927 65.4858 158.36H65.3285C65.4275 157.231 65.5266 156.13 65.6198 155.101C65.601 155.739 65.6147 156.378 65.6605 157.016H65.6518Z" fill="url(#paint0_linear)"/>
<path d="M50.1687 165.224V168.43C51.4473 168.906 52.79 167.801 54.1531 167.871C54.9482 167.909 55.6705 168.352 56.4569 168.486C56.5547 168.512 56.6567 168.518 56.7568 168.503C56.8569 168.488 56.953 168.454 57.0394 168.401C57.1835 168.253 57.2684 168.057 57.2782 167.85C57.5695 166.145 57.8899 162.021 55.2394 161.729C53.2822 161.505 52.5337 164.997 50.1687 165.224Z" fill="#FFB9B9"/>
<path opacity="0.1" d="M50.1687 165.224V168.43C51.4473 168.906 52.79 167.801 54.1531 167.871C54.9482 167.909 55.6705 168.352 56.4569 168.486C56.5547 168.512 56.6567 168.518 56.7568 168.503C56.8569 168.488 56.953 168.454 57.0394 168.401C57.1835 168.253 57.2684 168.057 57.2782 167.85C57.5695 166.145 57.8899 162.021 55.2394 161.729C53.2822 161.505 52.5337 164.997 50.1687 165.224Z" fill="black"/>
<path d="M53.8327 165.364C53.09 167.113 51.9804 168.433 51.0163 168.824C51.0033 168.831 50.9896 168.837 50.9755 168.841C50.6839 168.97 50.3536 168.979 50.0552 168.868C49.9623 168.83 49.8766 168.777 49.8018 168.71C48.9717 168.016 49.0066 165.9 49.9299 163.714C50.9377 161.324 52.6299 159.756 53.7162 160.216C54.8026 160.677 54.8434 162.974 53.8327 165.364Z" fill="#4C4C78"/>
<path d="M52.1726 224.416L52.1172 225.18C52.1172 225.18 51.759 228.765 55.7404 228.716C59.7219 228.666 60.4238 225.923 60.4238 225.923L60.0132 224.102L52.1726 224.416Z" fill="#4C4C78"/>
<path d="M65.8236 149.017C65.8236 149.017 63.8955 167.926 64.2596 171.278C64.4984 173.488 63.6771 176.612 63.0684 178.49C62.7422 179.486 62.6203 180.538 62.7101 181.582C63.2926 187.966 61.2975 197.489 60.6713 198.532C60.0044 199.663 60.0655 207.423 60.0655 207.423L60.2781 209.244L60.4296 210.53L60.5723 211.76C60.5723 211.76 60.9014 216.278 60.3568 217.333C59.9607 218.1 60.0422 221.432 60.115 223.207C60.1442 223.88 60.1733 224.329 60.1733 224.329C60.1686 224.643 60.0507 224.946 59.8412 225.18C59.349 225.786 58.1287 226.474 55.1142 226.369C52.7055 226.285 51.9104 225.279 51.724 224.218C51.6411 223.47 51.7483 222.713 52.0356 222.017C52.1288 221.778 52.2016 221.636 52.2016 221.636L54.8229 213.436C54.8121 212.868 54.8306 212.3 54.8783 211.734C54.9133 211.077 55.0499 210.43 55.2831 209.816V209.792C55.8307 208.627 54.5899 201.814 54.5899 201.814C52.7725 194.781 53.2443 180.134 53.6812 179.44C54.1181 178.746 54.6919 175.922 54.6919 175.922C54.6919 175.922 54.7618 174.246 54.8724 170.418C54.9831 166.591 53.7424 159.563 53.7424 159.563C49.6299 146.155 53.5618 141.818 53.5618 141.818L65.8294 144.697L65.8236 149.017Z" fill="#FFB9B9"/>
<path d="M60.4384 210.53C59.1045 210.973 56.3608 211.815 54.8871 211.734C54.9221 211.077 55.0587 210.43 55.2919 209.816C56.4948 210.058 58.5336 210.236 60.287 209.233L60.4384 210.53Z" fill="#4C4C78"/>
<path d="M59.85 225.183C58.0384 224.233 54.6249 222.88 51.7328 224.221C51.6499 223.473 51.7571 222.716 52.0444 222.02C53.725 221.796 57.287 221.586 60.1238 223.21C60.153 223.883 60.1821 224.332 60.1821 224.332C60.1774 224.646 60.0595 224.949 59.85 225.183V225.183Z" fill="#4C4C78"/>
<path d="M54.3802 129.61V137.09C54.3802 137.09 48.7998 150.087 47.16 152.466C46.7251 153.096 46.3883 153.789 46.161 154.521C45.6405 156.206 44.8239 157.786 43.7494 159.184C41.9611 161.516 41.1281 164.545 41.1281 164.545C32.5623 161.653 42.0747 153.664 42.0747 153.664C42.0747 153.664 45.5697 146.059 45.861 143.558C46.0882 141.608 48.5143 134.28 49.5716 131.146C49.8628 130.272 50.0609 129.712 50.0609 129.712L54.3802 129.61Z" fill="#FFB9B9"/>
<path opacity="0.05" d="M66.4061 158.724C66.4061 158.724 63.4091 156.684 62.2441 162.222C61.0791 167.76 65.5469 169.217 65.5469 169.217L66.4061 158.724Z" fill="black"/>
<path d="M67.6324 144.963C67.6324 144.963 64.8538 151.055 65.2674 157.01C65.3098 157.559 65.2199 158.111 65.0052 158.619C63.7918 161.536 63.2532 164.69 63.4296 167.844C63.4296 167.903 63.4296 167.961 63.4296 168.019C63.4952 168.975 63.8172 169.895 64.3616 170.682C64.906 171.47 65.6526 172.096 66.5228 172.494C67.3929 172.893 68.3543 173.049 69.3057 172.946C70.2571 172.843 71.1631 172.486 71.9284 171.911C73.9672 170.369 76.1836 167.801 77.4127 163.563C77.7488 162.382 78.1534 161.222 78.6243 160.088C80.0806 156.681 82.8854 149.417 82.0437 146.274C80.934 142.109 67.6324 144.963 67.6324 144.963Z" fill="#FFB9B9"/>
<path opacity="0.1" d="M81.8893 146.274C81.4029 144.453 78.601 143.972 75.5982 144.004C78.3738 144.039 80.8408 144.587 81.3068 146.274C82.1456 149.417 79.335 156.681 77.8874 160.088C77.4144 161.221 77.0098 162.381 76.6758 163.563C75.4438 167.801 73.2303 170.372 71.1915 171.911C70.356 172.548 69.3484 172.92 68.2993 172.978C69.5478 173.05 70.7808 172.671 71.774 171.911C73.8128 170.372 76.0263 167.801 77.2583 163.563C77.5923 162.381 77.9969 161.221 78.47 160.088C79.9175 156.684 82.7281 149.417 81.8893 146.274Z" fill="black"/>
<path opacity="0.1" d="M52.4638 135.428C52.4638 135.428 50.3144 143.881 49.8425 144.391C49.8425 144.391 63.8228 147.196 65.8237 149.309L66.115 146.904L67.0994 147.56C67.0994 147.56 75.1817 141.803 82.2447 149.017C82.2447 149.017 85.7019 138.524 84.7203 136.556C83.7388 134.589 71.9401 136.303 71.9401 136.303L52.4638 135.428Z" fill="black"/>
<path d="M52.4638 135.137C52.4638 135.137 50.3144 143.59 49.8425 144.1C49.8425 144.1 63.8228 146.904 65.8237 149.017L66.115 146.613L67.0994 147.268C67.0994 147.268 75.1817 141.512 82.2447 148.726C82.2447 148.726 85.7019 138.232 84.7203 136.265C83.7388 134.297 71.9401 136.011 71.9401 136.011L52.4638 135.137Z" fill="#4C4C78"/>
<path d="M52.0706 84.7764C52.0337 85.2153 52.0424 85.6568 52.0968 86.0939C52.1929 86.9684 52.3269 87.8428 52.4754 88.7173C52.5191 88.9738 52.5657 89.2274 52.6123 89.481C53.0725 91.982 53.6667 94.4625 54.0686 96.9751C54.2796 98.2608 54.4215 99.5569 54.4938 100.858C54.6582 103.162 54.4487 105.477 53.8734 107.714C53.5368 108.958 53.027 110.15 52.3589 111.252C52.0898 111.733 51.7343 112.16 51.3104 112.511C51.2171 112.578 51.1198 112.64 51.0191 112.695C50.4147 113.011 49.7489 113.192 49.0677 113.226C48.6046 113.269 48.1415 113.284 47.6755 113.284C47.3086 113.284 46.9387 113.284 46.5717 113.255C45.2639 113.199 43.9504 113.068 42.6485 113.077C40.5077 113.094 38.233 113.555 36.6952 115.094C34.971 116.82 34.5778 119.402 33.8497 121.798C33.5917 122.712 33.2281 123.592 32.7662 124.422C32.4807 124.996 32.0139 125.46 31.4381 125.742C30.9426 125.896 30.4182 125.933 29.9061 125.85L23.8305 125.34C23.0208 125.273 22.1528 125.217 21.4567 125.646C20.6733 126.127 20.3179 127.083 19.9597 127.949C19.2323 129.711 18.2871 131.376 17.1462 132.904C16.654 133.566 16.0947 134.221 15.3433 134.522C14.5103 134.851 13.5783 134.694 12.6987 134.522C9.93761 134.009 6.83866 133.262 5.41733 130.764C3.77174 127.85 5.26297 124.139 7.19108 121.437C9.11918 118.735 11.5861 116.167 12.0084 112.823C12.122 111.926 12.0405 110.914 11.4259 110.27C10.9424 109.763 10.2114 109.57 9.75121 109.043C8.94152 108.107 9.32889 106.635 9.83276 105.492C11.154 102.485 12.9771 99.7254 15.2239 97.3308C18.7393 93.5939 23.4373 90.5099 24.7829 85.4847C25.6071 82.3978 24.978 79.1215 25.0596 75.9181C25.0887 74.7113 25.2431 73.4462 25.913 72.4552C26.679 71.3242 28.0071 70.7296 29.3206 70.5022C32.705 69.9192 36.5583 71.2863 39.401 69.2925C41.1747 68.045 42.1271 65.6956 44.0931 64.8036C45.7853 64.0341 47.7513 64.5704 49.4638 65.2904C52.3764 66.5059 55.3414 68.6396 55.8103 71.8401C55.8515 72.1417 55.8768 72.4453 55.886 72.7496C55.8736 73.512 55.9213 74.2741 56.0287 75.029C56.4802 77.3434 58.5539 79.5791 57.5899 81.7332C54.6249 82.1005 52.3094 82.1093 52.0706 84.7764Z" fill="#B96B6B"/>
<path opacity="0.1" d="M53.8734 107.714C52.8219 109.299 51.9307 110.999 51.0307 112.695C50.4263 113.011 49.7605 113.192 49.0793 113.226C48.6162 113.269 48.1531 113.284 47.6871 113.284C47.3201 113.284 46.9502 113.284 46.5832 113.255C45.2755 113.199 43.962 113.068 42.66 113.077C40.5193 113.094 38.2446 113.555 36.7068 115.094C34.9826 116.82 34.5894 119.402 33.8612 121.798C33.7564 121.798 33.6515 121.798 33.5467 121.798C32.0321 121.798 30.7011 120.839 29.539 119.871C29.2332 119.648 28.9749 119.365 28.7788 119.041C28.598 118.652 28.5353 118.218 28.5982 117.793C28.7672 116.105 29.9176 114.706 30.9516 113.365C32.0706 111.914 33.1081 110.402 34.0593 108.836C34.4962 108.122 34.933 107.332 34.8544 106.504C34.7962 105.833 34.4204 105.236 34.2719 104.583C33.8729 102.904 35.0029 101.231 36.3311 100.132C37.6592 99.033 39.2436 98.2314 40.3591 96.911C41.4746 95.5906 42.0076 93.7658 42.1329 92.0023C42.2232 90.7635 42.1853 89.3789 43.027 88.4666C44.2678 87.117 46.1871 87.9536 47.7279 88.0818C49.3356 88.2188 50.9113 88.4316 52.487 88.7027C52.5307 88.9592 52.5773 89.2128 52.6239 89.4664C53.0841 91.9674 53.6782 94.4479 54.0802 96.9605C54.2912 98.2462 54.4331 99.5423 54.5054 100.843C54.6675 103.152 54.4541 105.473 53.8734 107.714Z" fill="black"/>
<path d="M68.7013 64.2176L62.8762 68.2023L62.4305 66.9401L61.4694 64.2176C61.4694 64.2176 49.9153 55.7645 47.0989 52.8992C44.2824 50.0338 41.8097 51.0045 41.8097 51.0045C38.9932 53.0945 34.8662 54.1147 33.8002 50.4215C33.005 47.6815 38.9554 46.2503 42.0747 45.6965C43.2071 45.4942 44.3745 45.7008 45.3688 46.2795C47.5008 47.5212 51.4007 49.7569 53.2152 50.6168C55.7899 51.8294 65.9343 59.7987 65.9343 60.2359C65.9343 60.5274 67.2595 62.3288 68.0751 63.4015C68.4391 63.8824 68.7013 64.2176 68.7013 64.2176Z" fill="#FFB9B9"/>
<path d="M80.0602 99.5868L82.6815 120.379L86.759 117.271C86.759 117.271 85.1076 113.774 86.1765 113.144C87.2454 112.514 88.7978 116.589 88.7978 116.589C88.7978 116.589 99.1869 117.172 96.2743 111.246L92.9715 106.97L86.4678 102.35L80.0602 99.5868Z" fill="#757A9B"/>
<path opacity="0.1" d="M80.0602 99.5868L82.6815 120.379L86.759 117.271C86.759 117.271 85.1076 113.774 86.1765 113.144C87.2454 112.514 88.7978 116.589 88.7978 116.589C88.7978 116.589 99.1869 117.172 96.2743 111.246L92.9715 106.97L86.4678 102.35L80.0602 99.5868Z" fill="black"/>
<path d="M70.2537 98.6133L68.9925 109.107L60.5811 109.789C60.5811 109.789 51.6075 107.227 54.9162 100.945C56.419 98.0886 55.4754 96.3776 54.1123 95.3749C53.1133 94.6998 51.9809 94.2475 50.792 94.0486C50.792 94.0486 50.5473 78.0168 53.3609 83.4559C54.6249 85.9015 57.2025 86.8751 59.6578 87.2074C61.6015 87.4404 63.5688 87.3883 65.4975 87.0529L70.2537 98.6133Z" fill="#FFB9B9"/>
<path opacity="0.1" d="M59.6607 87.3444C59.6603 89.0889 59.1289 90.7919 58.1371 92.2265C57.1454 93.6612 55.7404 94.7594 54.1094 95.3749C53.1103 94.6998 51.978 94.2475 50.7891 94.0486C50.7891 94.0486 50.5444 78.0168 53.3579 83.4559C54.622 85.9015 57.1996 86.8751 59.6549 87.2074C59.6607 87.254 59.6607 87.3094 59.6607 87.3444Z" fill="black"/>
<path d="M50.7921 95.6371C55.5293 95.6371 59.3695 91.7938 59.3695 87.0528C59.3695 82.3118 55.5293 78.4685 50.7921 78.4685C46.0549 78.4685 42.2146 82.3118 42.2146 87.0528C42.2146 91.7938 46.0549 95.6371 50.7921 95.6371Z" fill="#FFB9B9"/>
<path opacity="0.1" d="M68.7013 64.2177L62.8762 68.2023L62.4305 66.9401C64.1635 66.3717 66.8343 64.3751 68.0751 63.4015C68.4391 63.8824 68.7013 64.2177 68.7013 64.2177Z" fill="black"/>
<path d="M70.4983 68.2024L70.2537 69.3188L63.4587 71.5049C62.7885 70.7448 62.165 69.9446 61.5917 69.1089C60.9539 68.1382 60.5956 67.2638 61.4694 67.3775C63.3626 67.6194 68.7508 63.1509 68.7508 63.1509C69.6508 62.1394 70.1779 65.4216 70.3905 67.1734C70.4634 67.7797 70.4983 68.2024 70.4983 68.2024Z" fill="#CBCDDA"/>
<path opacity="0.1" d="M54.3803 129.61V132.277C53.7978 132.277 51.2231 132.146 49.5717 131.14C49.8629 130.266 50.061 129.706 50.061 129.706L54.3803 129.61Z" fill="black"/>
<path d="M55.6443 126.987L55.2744 128.636L54.5084 131.989C54.5084 131.989 50.8678 131.989 49.0969 130.508C48.0105 129.601 48.2552 128.176 48.6076 127.205C48.7373 126.842 48.9011 126.491 49.0969 126.159L55.6443 126.987Z" fill="#CBCDDA"/>
<path opacity="0.1" d="M55.6443 126.987L55.2744 128.636C53.5531 129.546 49.6153 127.704 48.6075 127.205C48.7372 126.842 48.9011 126.491 49.0969 126.159L55.6443 126.987Z" fill="black"/>
<path d="M48.8464 106.437L47.926 109.984C47.926 109.984 49.7697 121.011 49.0415 123.197C48.3134 125.383 48.3629 126.791 48.3629 126.791C48.3629 126.791 53.7016 129.61 55.4987 128.202C57.2957 126.794 57.2928 120.83 57.2928 120.83L61.0791 116.945L56.2734 109.999L48.8464 106.437Z" fill="#757A9B"/>
<path opacity="0.1" d="M67.0993 92.5562C67.0993 92.5562 71.6866 107.932 56.7598 104.361L61.0791 121.341L52.4637 137.372C52.4637 137.372 80.0602 142.036 84.7202 135.988C84.7202 135.988 82.463 117.77 83.3368 111.649C84.2106 105.527 80.5699 95.9782 78.6039 95.3603C76.6379 94.7423 67.0993 92.5562 67.0993 92.5562Z" fill="black"/>
<path opacity="0.1" d="M67.0993 93.139C67.0993 93.139 71.6866 108.515 56.7598 104.944L61.0791 121.923L52.4637 137.955C52.4637 137.955 80.0602 142.619 84.7202 136.571C84.7202 136.571 82.463 118.353 83.3368 112.231C84.2106 106.11 80.5699 96.5611 78.6039 95.9431C76.6379 95.3252 67.0993 93.139 67.0993 93.139Z" fill="black"/>
<path d="M67.0993 92.8477C67.0993 92.8477 71.6866 108.224 56.7598 104.653L61.0791 121.632L52.4637 137.664C52.4637 137.664 80.0602 142.328 84.7202 136.279C84.7202 136.279 82.463 118.061 83.3368 111.94C84.2106 105.819 80.5699 96.2697 78.6039 95.6518C76.6379 95.0338 67.0993 92.8477 67.0993 92.8477Z" fill="#CBCDDA"/>
<path opacity="0.1" d="M67.1954 69.9659C66.3217 70.3739 64.3586 70.9103 61.516 69.6598C61.516 69.6598 65.9838 78.4044 66.2751 80.0572C66.5663 81.7099 66.5663 83.7503 66.1761 84.0418C65.7858 84.3333 64.6237 87.3444 64.6237 87.3444L60.0597 87.5455C60.0597 87.5455 62.9722 88.7114 62.9722 90.9384C62.9722 93.1654 69.3799 97.3511 72.7788 99.0039C76.1778 100.657 90.059 105.524 90.059 105.524L96.2744 111.538C96.2744 111.538 93.8453 105.221 85.594 99.5869C77.3428 93.9524 77.4389 90.6003 77.4389 90.6003C77.4389 90.6003 75.8865 78.795 73.8477 75.4896C71.8089 72.1841 70.6439 67.427 70.6439 67.427C70.6439 67.427 69.0129 69.6773 68.043 69.7385C67.7489 69.7614 67.4616 69.8385 67.1954 69.9659Z" fill="black"/>
<path opacity="0.1" d="M70.4983 68.2024L70.2536 69.3188L63.4586 71.505C62.7884 70.7448 62.165 69.9447 61.5917 69.1089C64.3965 70.3186 66.3217 69.7881 67.1954 69.3829C67.461 69.2541 67.7486 69.177 68.043 69.1556C68.7799 69.1089 69.8954 67.8031 70.3905 67.1735C70.4633 67.7798 70.4983 68.2024 70.4983 68.2024Z" fill="black"/>
<path d="M67.1954 69.6744C66.3217 70.0824 64.3586 70.6188 61.516 69.3683C61.516 69.3683 65.9838 78.1129 66.2751 79.7657C66.5663 81.4184 66.5663 83.4588 66.1761 83.7503C65.7858 84.0418 64.6237 87.0529 64.6237 87.0529L60.0597 87.254C60.0597 87.254 62.9722 88.4199 62.9722 90.6469C62.9722 92.8739 69.3799 97.0596 72.7788 98.7124C76.1778 100.365 90.059 105.233 90.059 105.233L96.2744 111.246C96.2744 111.246 93.8453 104.93 85.594 99.2953C77.3428 93.6609 77.4389 90.3088 77.4389 90.3088C77.4389 90.3088 75.8865 78.5035 73.8477 75.1981C71.8089 71.8926 70.6439 67.1355 70.6439 67.1355C70.6439 67.1355 69.0129 69.3858 68.043 69.447C67.7489 69.4699 67.4616 69.547 67.1954 69.6744Z" fill="#757A9B"/>
<path opacity="0.1" d="M45.2436 93.5267C45.5348 92.6086 45.3601 91.6088 45.4824 90.6527C45.8086 88.0613 48.2464 85.9743 48.1328 83.3655C48.0899 83.1217 48.1256 82.8705 48.2348 82.6484C48.3967 82.4659 48.6235 82.354 48.8668 82.3365C50.1367 82.1062 51.5958 82.2287 52.5395 81.3484C53.4832 80.4681 53.4599 78.8736 53.3172 77.5328C53.2385 76.8128 53.1249 76.02 52.5745 75.5449C52.1989 75.27 51.762 75.0909 51.3017 75.0231C49.7134 74.6617 48.1163 74.3459 46.5105 74.0758C44.8912 73.8018 43.1873 73.5831 41.6466 74.1515C40.1058 74.7199 38.9088 76.055 37.8107 77.3288C36.7768 78.5268 35.6729 79.9667 35.9642 81.5262C36.1244 82.3715 36.6748 83.0798 37.0418 83.8581C37.4267 84.6946 37.6013 85.6127 37.5506 86.5322C37.4998 87.4518 37.2252 88.345 36.7506 89.134C35.9875 90.3699 34.7118 91.3464 34.4031 92.763C34.1118 94.0864 34.7846 95.5264 35.9147 96.2755C38.2302 97.8029 44.3319 96.4212 45.2436 93.5267Z" fill="black"/>
<path d="M44.9523 93.5267C45.2436 92.6086 45.0688 91.6088 45.1911 90.6527C45.5173 88.0613 47.9551 85.9743 47.8416 83.3655C47.7986 83.1217 47.8343 82.8705 47.9435 82.6484C48.1055 82.4659 48.3323 82.354 48.5755 82.3365C49.8454 82.1062 51.3046 82.2287 52.2482 81.3484C53.1919 80.4681 53.1686 78.8736 53.0259 77.5328C52.9472 76.8128 52.8337 76.02 52.2832 75.5449C51.9076 75.27 51.4707 75.0909 51.0104 75.0231C49.4221 74.6617 47.825 74.3459 46.2193 74.0758C44.5999 73.8018 42.896 73.5831 41.3553 74.1515C39.8146 74.7199 38.6175 76.055 37.5195 77.3288C36.4855 78.5268 35.3817 79.9667 35.6729 81.5262C35.8331 82.3715 36.3836 83.0798 36.7506 83.8581C37.1354 84.6946 37.3101 85.6127 37.2593 86.5322C37.2085 87.4518 36.9339 88.345 36.4593 89.134C35.6962 90.3699 34.4205 91.3464 34.1118 92.763C33.8205 94.0864 34.4933 95.5264 35.6234 96.2755C37.9389 97.8029 44.0407 96.4212 44.9523 93.5267Z" fill="#B96B6B"/>
<path opacity="0.1" d="M54.9337 95.8296C54.9337 95.8296 47.7309 101.531 47.4892 103.426C47.2475 105.32 48.2639 109.789 48.2639 109.789L55.4492 114.307C55.4492 114.307 63.75 117.563 57.5375 123.002C51.325 128.441 49.1377 140.104 49.1377 140.104C49.1377 140.104 52.1493 143.698 57.7792 133.364C57.7792 133.364 63.217 127.439 63.4587 124.524C63.7005 121.609 64.548 112.669 60.8724 107.131C58.4462 103.475 57.1268 99.3712 56.1773 97.2462C55.9492 96.6381 55.5069 96.1343 54.9337 95.8296V95.8296Z" fill="black"/>
<path d="M54.6424 95.8296C54.6424 95.8296 47.4397 101.531 47.1979 103.426C46.9562 105.32 47.9727 109.789 47.9727 109.789L55.1579 114.307C55.1579 114.307 63.4587 117.563 57.2462 123.002C51.0338 128.441 48.8464 140.104 48.8464 140.104C48.8464 140.104 51.858 143.698 57.488 133.364C57.488 133.364 62.9257 127.439 63.1675 124.524C63.4092 121.609 64.2568 112.669 60.5811 107.131C58.155 103.475 56.8356 99.3712 55.8861 97.2462C55.658 96.6381 55.2157 96.1343 54.6424 95.8296V95.8296Z" fill="#757A9B"/>
<path opacity="0.1" d="M57.2462 123.002C57.2462 123.002 50.926 124.984 51.6949 131.164Z" fill="black"/>
<path opacity="0.1" d="M58.7579 114.453L57.2928 120.819L60.0598 117.98L58.7579 114.453Z" fill="black"/>
<path opacity="0.1" d="M66.1149 146.615L64.2275 148.047L65.8236 149.02L66.1149 146.615Z" fill="black"/>
<path opacity="0.1" d="M76.7108 114.453C76.7108 114.453 83.2058 114.663 83.3369 112.217Z" fill="black"/>
<path d="M12.8385 212.454C12.8385 212.454 14.4404 214.55 12.1016 217.701C9.76286 220.852 7.83475 223.53 8.60657 225.501C8.60657 225.501 12.1337 219.63 15.0142 219.549C17.8947 219.467 15.9986 215.987 12.8385 212.454Z" fill="#6C63FF"/>
<path opacity="0.1" d="M12.8385 212.454C12.9782 212.656 13.089 212.877 13.1676 213.11C15.9695 216.406 17.4607 219.482 14.7666 219.557C12.2589 219.645 9.25609 224.119 8.52795 225.253C8.55137 225.34 8.58056 225.426 8.61533 225.51C8.61533 225.51 12.1424 219.639 15.0229 219.557C17.9035 219.476 15.9986 215.987 12.8385 212.454Z" fill="black"/>
<path d="M15.8152 215.124C15.8152 215.861 15.7307 216.459 15.6288 216.459C15.5269 216.459 15.4453 215.861 15.4453 215.124C15.4453 214.386 15.5473 214.733 15.6492 214.733C15.7511 214.733 15.8152 214.398 15.8152 215.124Z" fill="#FFD037"/>
<path d="M16.8287 216.004C16.1821 216.357 15.6171 216.57 15.5705 216.479C15.5239 216.389 16.0045 216.03 16.6511 215.678C17.2976 215.325 17.0443 215.582 17.0938 215.678C17.1433 215.774 17.4811 215.651 16.8287 216.004Z" fill="#FFD037"/>
<path d="M4.38915 212.454C4.38915 212.454 2.78725 214.55 5.12603 217.701C7.46481 220.852 9.39292 223.53 8.62109 225.501C8.62109 225.501 5.09108 219.63 2.21348 219.549C-0.664122 219.467 1.22904 215.987 4.38915 212.454Z" fill="#6C63FF"/>
<path opacity="0.1" d="M4.38925 212.454C4.24955 212.656 4.13877 212.877 4.06013 213.11C1.25826 216.406 -0.232966 219.482 2.46114 219.557C4.96885 219.63 7.97751 224.119 8.69983 225.253C8.67606 225.34 8.64787 225.426 8.61536 225.51C8.61536 225.51 5.08535 219.645 2.21358 219.557C-0.658198 219.47 1.22913 215.987 4.38925 212.454Z" fill="black"/>
<path d="M1.4126 215.124C1.4126 215.861 1.49706 216.459 1.599 216.459C1.70094 216.459 1.78249 215.861 1.78249 215.124C1.78249 214.386 1.68055 214.733 1.57861 214.733C1.47667 214.733 1.4126 214.398 1.4126 215.124Z" fill="#FFD037"/>
<path d="M0.39317 216.004C1.03976 216.357 1.60479 216.57 1.65139 216.479C1.69799 216.389 1.21742 216.03 0.570836 215.678C-0.0757508 215.325 0.177641 215.582 0.128128 215.678C0.0786143 215.774 -0.253417 215.651 0.39317 216.004Z" fill="#FFD037"/>
<path d="M1.92224 225.236C1.92224 225.236 6.39592 225.099 7.74734 224.14C9.09877 223.181 14.6297 222.029 14.9646 223.571C15.2996 225.113 21.6868 231.234 16.6364 231.275C11.5861 231.316 4.88722 230.488 3.55327 229.669C2.21932 228.85 1.92224 225.236 1.92224 225.236Z" fill="#A8A8A8"/>
<path opacity="0.2" d="M16.7238 230.739C11.6735 230.78 4.98916 229.952 3.64356 229.133C2.61834 228.506 2.21058 226.265 2.07369 225.23H1.92224C1.92224 225.23 2.2135 228.841 3.55327 229.663C4.89304 230.485 11.5861 231.304 16.6335 231.275C18.0898 231.275 18.5937 230.745 18.5675 229.975C18.3636 230.43 17.8073 230.721 16.7238 230.739Z" fill="black"/>
<path d="M300.086 189.039C300.619 188.602 301.008 188.015 301.201 187.354C301.347 186.683 301.062 185.879 300.421 185.634C299.704 185.36 298.938 185.858 298.359 186.36C297.779 186.861 297.112 187.435 296.352 187.328C296.743 186.974 297.036 186.524 297.202 186.023C297.367 185.521 297.399 184.986 297.296 184.468C297.264 184.253 297.174 184.051 297.034 183.885C296.637 183.46 295.915 183.643 295.44 183.978C293.926 185.042 293.504 187.103 293.495 188.954C293.34 188.287 293.472 187.59 293.466 186.914C293.46 186.237 293.273 185.456 292.697 185.101C292.339 184.908 291.938 184.813 291.532 184.824C290.85 184.797 290.093 184.867 289.627 185.366C289.044 185.984 289.199 187.024 289.703 187.698C290.207 188.371 290.97 188.808 291.675 189.278C292.238 189.614 292.719 190.073 293.081 190.621C293.124 190.699 293.159 190.78 293.186 190.863H297.453C298.408 190.376 299.294 189.762 300.086 189.039V189.039Z" fill="#6C63FF"/>
<path d="M266.172 193.624C266.172 193.624 262.08 179.711 266.938 169.48C269.005 165.2 269.628 160.365 268.715 155.701C268.263 153.49 267.611 151.325 266.766 149.233" stroke="#535461" stroke-width="2" stroke-miterlimit="10"/>
<path d="M269.79 142.765C269.79 144.467 266.705 149.411 266.705 149.411C266.705 149.411 263.621 144.456 263.621 142.765C263.621 141.946 263.946 141.161 264.524 140.582C265.103 140.003 265.887 139.678 266.705 139.678C267.523 139.678 268.308 140.003 268.886 140.582C269.465 141.161 269.79 141.946 269.79 142.765Z" fill="#6C63FF"/>
<path d="M274.881 152.203C273.955 153.635 268.683 156.106 268.683 156.106C268.683 156.106 268.779 150.277 269.702 148.851C269.918 148.501 270.201 148.198 270.535 147.959C270.869 147.72 271.248 147.55 271.648 147.46C272.049 147.369 272.464 147.359 272.868 147.431C273.272 147.503 273.658 147.655 274.003 147.879C274.348 148.102 274.645 148.392 274.876 148.731C275.108 149.071 275.269 149.453 275.351 149.856C275.433 150.259 275.433 150.674 275.352 151.077C275.272 151.48 275.111 151.863 274.881 152.203V152.203Z" fill="#6C63FF"/>
<path d="M274.662 168.343C273.142 169.11 267.346 168.579 267.346 168.579C267.346 168.579 270.366 163.601 271.887 162.831C272.249 162.639 272.646 162.521 273.055 162.484C273.464 162.448 273.876 162.493 274.267 162.618C274.657 162.742 275.02 162.944 275.332 163.21C275.644 163.477 275.9 163.803 276.085 164.17C276.269 164.536 276.379 164.936 276.407 165.346C276.435 165.756 276.382 166.167 276.249 166.555C276.117 166.944 275.908 167.302 275.636 167.609C275.363 167.916 275.032 168.166 274.662 168.343V168.343Z" fill="#6C63FF"/>
<path d="M271.75 180.504C270.378 181.518 264.576 181.961 264.576 181.961C264.576 181.961 266.711 176.542 268.071 175.528C268.73 175.082 269.535 174.908 270.318 175.042C271.102 175.176 271.804 175.608 272.277 176.247C272.751 176.886 272.959 177.684 272.859 178.473C272.759 179.262 272.359 179.983 271.741 180.483L271.75 180.504Z" fill="#6C63FF"/>
<path d="M262.214 156.436C263.434 157.625 269.126 158.855 269.126 158.855C269.126 158.855 267.733 153.197 266.504 152.011C265.918 151.441 265.129 151.127 264.312 151.139C263.495 151.15 262.715 151.487 262.146 152.074C261.576 152.66 261.263 153.449 261.274 154.268C261.286 155.086 261.622 155.865 262.208 156.436H262.214Z" fill="#6C63FF"/>
<path d="M258.984 170.71C260.504 171.479 266.303 170.949 266.303 170.949C266.303 170.949 263.283 165.967 261.774 165.201C261.048 164.86 260.217 164.815 259.458 165.077C258.699 165.339 258.072 165.887 257.711 166.604C257.349 167.321 257.281 168.151 257.521 168.918C257.761 169.685 258.29 170.327 258.996 170.71H258.984Z" fill="#6C63FF"/>
<path d="M257.749 185.016C259.118 186.027 264.923 186.473 264.923 186.473C264.923 186.473 262.785 181.052 261.428 180.037C261.105 179.772 260.731 179.576 260.33 179.46C259.928 179.343 259.507 179.31 259.093 179.361C258.678 179.413 258.278 179.548 257.917 179.759C257.557 179.97 257.242 180.252 256.994 180.588C256.745 180.924 256.567 181.307 256.471 181.714C256.375 182.121 256.362 182.543 256.434 182.955C256.505 183.367 256.66 183.76 256.888 184.11C257.116 184.46 257.413 184.761 257.761 184.993L257.749 185.016Z" fill="#6C63FF"/>
<path d="M269.79 142.765C269.79 144.467 266.705 149.411 266.705 149.411C266.705 149.411 263.621 144.456 263.621 142.765C263.621 141.946 263.946 141.161 264.524 140.582C265.103 140.003 265.887 139.678 266.705 139.678C267.523 139.678 268.308 140.003 268.886 140.582C269.465 141.161 269.79 141.946 269.79 142.765Z" fill="#6C63FF"/>
<path d="M274.881 152.203C273.955 153.635 268.683 156.106 268.683 156.106C268.683 156.106 268.779 150.277 269.702 148.851C269.918 148.501 270.201 148.198 270.535 147.959C270.869 147.72 271.248 147.55 271.648 147.46C272.049 147.369 272.464 147.359 272.868 147.431C273.272 147.503 273.658 147.655 274.003 147.879C274.348 148.102 274.645 148.392 274.876 148.731C275.108 149.071 275.269 149.453 275.351 149.856C275.433 150.259 275.433 150.674 275.352 151.077C275.272 151.48 275.111 151.863 274.881 152.203V152.203Z" fill="#6C63FF"/>
<path d="M274.662 168.343C273.142 169.11 267.346 168.579 267.346 168.579C267.346 168.579 270.366 163.601 271.887 162.831C272.249 162.639 272.646 162.521 273.055 162.484C273.464 162.448 273.876 162.493 274.267 162.618C274.657 162.742 275.02 162.944 275.332 163.21C275.644 163.477 275.9 163.803 276.085 164.17C276.269 164.536 276.379 164.936 276.407 165.346C276.435 165.756 276.382 166.167 276.249 166.555C276.117 166.944 275.908 167.302 275.636 167.609C275.363 167.916 275.032 168.166 274.662 168.343V168.343Z" fill="#6C63FF"/>
<path d="M271.75 180.504C270.378 181.518 264.576 181.961 264.576 181.961C264.576 181.961 266.711 176.542 268.071 175.528C268.73 175.082 269.535 174.908 270.318 175.042C271.102 175.176 271.804 175.608 272.277 176.247C272.751 176.886 272.959 177.684 272.859 178.473C272.759 179.262 272.359 179.983 271.741 180.483L271.75 180.504Z" fill="#6C63FF"/>
<path d="M262.214 156.436C263.434 157.625 269.126 158.855 269.126 158.855C269.126 158.855 267.733 153.197 266.504 152.011C265.918 151.441 265.129 151.127 264.312 151.139C263.495 151.15 262.715 151.487 262.146 152.074C261.576 152.66 261.263 153.449 261.274 154.268C261.286 155.086 261.622 155.865 262.208 156.436H262.214Z" fill="#6C63FF"/>
<path d="M258.984 170.71C260.504 171.479 266.303 170.949 266.303 170.949C266.303 170.949 263.283 165.967 261.774 165.201C261.048 164.86 260.217 164.815 259.458 165.077C258.699 165.339 258.072 165.887 257.711 166.604C257.349 167.321 257.281 168.151 257.521 168.918C257.761 169.685 258.29 170.327 258.996 170.71H258.984Z" fill="#6C63FF"/>
<path d="M257.749 185.016C259.118 186.027 264.923 186.473 264.923 186.473C264.923 186.473 262.785 181.052 261.428 180.037C261.105 179.772 260.731 179.576 260.33 179.46C259.928 179.343 259.507 179.31 259.093 179.361C258.678 179.413 258.278 179.548 257.917 179.759C257.557 179.97 257.242 180.252 256.994 180.588C256.745 180.924 256.567 181.307 256.471 181.714C256.375 182.121 256.362 182.543 256.434 182.955C256.505 183.367 256.66 183.76 256.888 184.11C257.116 184.46 257.413 184.761 257.761 184.993L257.749 185.016Z" fill="#6C63FF"/>
<path d="M256.5 192.746C256.5 192.746 261.483 191.755 262.811 190.435C264.139 189.114 270.122 186.803 270.786 188.453C271.45 190.103 279.756 195.717 274.109 196.708C268.461 197.699 260.819 198.028 259.156 197.366C257.493 196.705 256.5 192.746 256.5 192.746Z" fill="#A8A8A8"/>
<path opacity="0.2" d="M274.109 196.093C268.461 197.084 260.819 197.413 259.156 196.754C257.892 196.25 257.012 193.839 256.666 192.711L256.5 192.746C256.5 192.746 257.496 196.708 259.156 197.366C260.816 198.025 268.476 197.699 274.109 196.708C275.74 196.416 276.206 195.749 276.028 194.9C275.891 195.451 275.323 195.88 274.109 196.093Z" fill="black"/>
<path d="M186.415 37.325H120.385C117.336 37.325 114.865 39.798 114.865 42.8486V108.932C114.865 111.983 117.336 114.456 120.385 114.456H186.415C189.463 114.456 191.934 111.983 191.934 108.932V42.8486C191.934 39.798 189.463 37.325 186.415 37.325Z" fill="#EAEAF3"/>
<path opacity="0.1" d="M158.574 50.6752H131.694C128.646 50.6752 126.175 53.1482 126.175 56.1989V83.1003C126.175 86.1509 128.646 88.624 131.694 88.624H158.574C161.622 88.624 164.093 86.1509 164.093 83.1003V56.1989C164.093 53.1482 161.622 50.6752 158.574 50.6752Z" fill="#6C63FF"/>
<path opacity="0.1" d="M175.1 63.1509H148.22C145.172 63.1509 142.7 65.6239 142.7 68.6746V95.576C142.7 98.6266 145.172 101.1 148.22 101.1H175.1C178.148 101.1 180.619 98.6266 180.619 95.576V68.6746C180.619 65.6239 178.148 63.1509 175.1 63.1509Z" fill="#6C63FF"/>
</g>
<defs>
<filter id="filter0_ii" x="0" y="-5" width="322" height="247" filterUnits="userSpaceOnUse" color-interpolation-filters="sRGB">
<feFlood flood-opacity="0" result="BackgroundImageFix"/>
<feBlend mode="normal" in="SourceGraphic" in2="BackgroundImageFix" result="shape"/>
<feColorMatrix in="SourceAlpha" type="matrix" values="0 0 0 0 0 0 0 0 0 0 0 0 0 0 0 0 0 0 127 0" result="hardAlpha"/>
<feOffset dy="5"/>
<feGaussianBlur stdDeviation="5"/>
<feComposite in2="hardAlpha" operator="arithmetic" k2="-1" k3="1"/>
<feColorMatrix type="matrix" values="0 0 0 0 0 0 0 0 0 0 0 0 0 0 0 0 0 0 0.5 0"/>
<feBlend mode="normal" in2="shape" result="effect1_innerShadow"/>
<feColorMatrix in="SourceAlpha" type="matrix" values="0 0 0 0 0 0 0 0 0 0 0 0 0 0 0 0 0 0 127 0" result="hardAlpha"/>
<feOffset dy="-5"/>
<feGaussianBlur stdDeviation="12.5"/>
<feComposite in2="hardAlpha" operator="arithmetic" k2="-1" k3="1"/>
<feColorMatrix type="matrix" values="0 0 0 0 1 0 0 0 0 1 0 0 0 0 1 0 0 0 0.05 0"/>
<feBlend mode="normal" in2="effect1_innerShadow" result="effect2_innerShadow"/>
</filter>
<linearGradient id="paint0_linear" x1="50.7541" y1="229.203" x2="50.7541" y2="44.8833" gradientUnits="userSpaceOnUse">
<stop stop-color="#808080" stop-opacity="0.25"/>
<stop offset="0.54" stop-color="#808080" stop-opacity="0.12"/>
<stop offset="1" stop-color="#808080" stop-opacity="0.1"/>
</linearGradient>
<clipPath id="clip0">
<rect width="322" height="237" fill="white"/>
</clipPath>
</defs>
</svg>
